Coordinates
version=1
nRows=13
nColumns=40
inDegrees=yes

Units are S.I. units (second, meters, Newtons, ...)
If the header above contains a line with 'inDegrees', this indicates whether rotational values are in degrees (yes) or radians (no).

endheader
time	pelvis_tilt	pelvis_list	pelvis_rotation	pelvis_tx	pelvis_ty	pelvis_tz	hip_flexion_r	hip_adduction_r	hip_rotation_r	knee_angle_r	knee_angle_r_beta	ankle_angle_r	subtalar_angle_r	mtp_angle_r	hip_flexion_l	hip_adduction_l	hip_rotation_l	knee_angle_l	knee_angle_l_beta	ankle_angle_l	subtalar_angle_l	mtp_angle_l	lumbar_extension	lumbar_bending	lumbar_rotation	arm_flex_r	arm_add_r	arm_rot_r	elbow_flex_r	pro_sup_r	wrist_flex_r	wrist_dev_r	arm_flex_l	arm_add_l	arm_rot_l	elbow_flex_l	pro_sup_l	wrist_flex_l	wrist_dev_l
      1.09000000	     -1.83679217	      8.65990447	    -85.68815425	      0.22154075	      0.96854163	      0.38997541	     13.71198935	      5.09629284	     -5.63820648	     14.51063590	      0.25325837	      2.95477808	      0.00000000	      0.00000000	     29.89006846	     -2.99177450	     -1.14980676	     57.59180104	      1.00516655	     -2.47816566	      0.00000000	      0.00000000	      4.61180022	      0.29790021	      0.71357644	      0.00000000	      0.00000000	      0.00000000	      0.00000000	      0.00000000	      0.00000000	      0.00000000	      0.00000000	      0.00000000	      0.00000000	      0.00000000	      0.00000000	      0.00000000	      0.00000000
      1.10000000	     -1.50915274	      8.55477842	    -85.88045713	      0.22079996	      0.96929797	      0.40408403	     12.21141973	      4.96594402	     -5.30504603	     13.68728492	      0.23888819	      3.40512075	      0.00000000	      0.00000000	     30.70073806	     -2.65746894	     -1.52620489	     55.12691434	      0.96214616	     -1.75119432	      0.00000000	      0.00000000	      4.40165196	     -0.10648985	      1.09833331	      0.00000000	      0.00000000	      0.00000000	      0.00000000	      0.00000000	      0.00000000	      0.00000000	      0.00000000	      0.00000000	      0.00000000	      0.00000000	      0.00000000	      0.00000000	      0.00000000
      1.11000000	     -1.23928440	      8.60655904	    -86.07043523	      0.22010134	      0.96941980	      0.41812031	     10.92290441	      4.86800908	     -4.94042958	     12.92765991	      0.22563023	      3.85432470	      0.00000000	      0.00000000	     31.57994453	     -2.34818633	     -1.82516927	     52.38448824	      0.91428180	     -1.14614430	      0.00000000	      0.00000000	      4.37758463	     -0.45996091	      1.38295624	      0.00000000	      0.00000000	      0.00000000	      0.00000000	      0.00000000	      0.00000000	      0.00000000	      0.00000000	      0.00000000	      0.00000000	      0.00000000	      0.00000000	      0.00000000	      0.00000000
      1.12000000	     -1.01580594	      8.46740746	    -86.32897417	      0.21934470	      0.96944689	      0.43236521	      9.39175428	      4.82788476	     -4.56574250	     12.11422922	      0.21143319	      4.29154383	      0.00000000	      0.00000000	     32.08999576	     -2.17386385	     -2.24586580	     49.31068049	      0.86063373	     -0.74427356	      0.00000000	      0.00000000	      4.14760334	     -0.72406235	      1.78543756	      0.00000000	      0.00000000	      0.00000000	      0.00000000	      0.00000000	      0.00000000	      0.00000000	      0.00000000	      0.00000000	      0.00000000	      0.00000000	      0.00000000	      0.00000000	      0.00000000
      1.13000000	     -0.84572340	      8.42837320	    -86.61071872	      0.21860563	      0.96894660	      0.44657698	      7.99658885	      4.82387467	     -4.13992223	     11.34523397	      0.19801169	      4.72619666	      0.00000000	      0.00000000	     32.59976831	     -2.05610606	     -2.67277173	     45.98054285	      0.80251186	     -0.43521169	      0.00000000	      0.00000000	      4.03410651	     -0.93077962	      2.13744866	      0.00000000	      0.00000000	      0.00000000	      0.00000000	      0.00000000	      0.00000000	      0.00000000	      0.00000000	      0.00000000	      0.00000000	      0.00000000	      0.00000000	      0.00000000	      0.00000000
      1.14000000	     -0.72159561	      8.39018109	    -86.93414158	      0.21783121	      0.96805280	      0.46087010	      6.60022964	      4.85555429	     -3.68977149	     10.59034317	      0.18483636	      5.16340176	      0.00000000	      0.00000000	     32.99718452	     -2.03192496	     -3.21425837	     42.41544707	      0.74028921	     -0.24105076	      0.00000000	      0.00000000	      3.93582819	     -1.07510267	      2.50168590	      0.00000000	      0.00000000	      0.00000000	      0.00000000	      0.00000000	      0.00000000	      0.00000000	      0.00000000	      0.00000000	      0.00000000	      0.00000000	      0.00000000	      0.00000000	      0.00000000
      1.15000000	     -0.64501806	      8.35244382	    -87.27368141	      0.21710685	      0.96679289	      0.47522615	      5.20654833	      4.91876005	     -3.20783014	      9.84600578	      0.17184522	      5.57497218	      0.00000000	      0.00000000	     33.28970886	     -2.05664154	     -3.80081010	     38.63659819	      0.67433585	     -0.10054928	      0.00000000	      0.00000000	      3.84158201	     -1.15723633	      2.85803583	      0.00000000	      0.00000000	      0.00000000	      0.00000000	      0.00000000	      0.00000000	      0.00000000	      0.00000000	      0.00000000	      0.00000000	      0.00000000	      0.00000000	      0.00000000	      0.00000000
      1.16000000	     -0.61437221	      8.43007610	    -87.61931053	      0.21646452	      0.96499871	      0.48957550	      3.96706367	      5.00488924	     -2.70355778	      9.16658820	      0.15998715	      5.99220820	      0.00000000	      0.00000000	     33.63285055	     -2.10841052	     -4.42746570	     34.71131356	      0.60582671	      0.05107491	      0.00000000	      0.00000000	      3.88259892	     -1.18509616	      3.15130787	      0.00000000	      0.00000000	      0.00000000	      0.00000000	      0.00000000	      0.00000000	      0.00000000	      0.00000000	      0.00000000	      0.00000000	      0.00000000	      0.00000000	      0.00000000	      0.00000000
      1.17000000	     -0.58867790	      8.32106919	    -88.00513189	      0.21582533	      0.96316705	      0.50413246	      2.48127468	      5.08436169	     -2.20515304	      8.42837253	      0.14710285	      6.39313386	      0.00000000	      0.00000000	     33.67407432	     -2.18919398	     -5.20348316	     30.65465508	      0.53502466	      0.11816302	      0.00000000	      0.00000000	      3.71899088	     -1.19430899	      3.52499275	      0.00000000	      0.00000000	      0.00000000	      0.00000000	      0.00000000	      0.00000000	      0.00000000	      0.00000000	      0.00000000	      0.00000000	      0.00000000	      0.00000000	      0.00000000	      0.00000000
      1.18000000	     -0.59932516	      8.38561194	    -88.36304821	      0.21540084	      0.96076369	      0.51861661	      1.23065019	      5.16340176	     -1.72278115	      7.78110268	      0.13580586	      6.81439925	      0.00000000	      0.00000000	     33.86361234	     -2.21622971	     -5.89209942	     26.55502474	      0.46347261	      0.30163961	      0.00000000	      0.00000000	      3.73897704	     -1.14660940	      3.82674027	      0.00000000	      0.00000000	      0.00000000	      0.00000000	      0.00000000	      0.00000000	      0.00000000	      0.00000000	      0.00000000	      0.00000000	      0.00000000	      0.00000000	      0.00000000	      0.00000000
      1.19000000	     -0.62321728	      8.40906048	    -88.70865657	      0.21506162	      0.95811705	      0.53323180	     -0.05826908	      5.23743366	     -1.27814658	      7.16390376	      0.12503371	      7.22707819	      0.00000000	      0.00000000	     33.96417720	     -2.19445140	     -6.49207190	     22.47495678	      0.39226200	      0.53059678	      0.00000000	      0.00000000	      3.71668121	     -1.08822979	      4.07702964	      0.00000000	      0.00000000	      0.00000000	      0.00000000	      0.00000000	      0.00000000	      0.00000000	      0.00000000	      0.00000000	      0.00000000	      0.00000000	      0.00000000	      0.00000000	      0.00000000
      1.20000000	     -0.64355238	      8.47641624	    -89.01735037	      0.21495450	      0.95515206	      0.54790166	     -1.27736221	      5.28134462	     -0.87544187	      6.60499766	      0.11527896	      7.64879394	      0.00000000	      0.00000000	     34.08207754	     -2.05985089	     -6.80022311	     18.48851795	      0.32268551	      0.85816435	     -0.00000000	     -0.00000000	      3.75233174	     -1.02598442	      4.28040526	      0.00000000	     -0.00000000	      0.00000000	      0.00000000	      0.00000000	      0.00000000	     -0.00000000	      0.00000000	      0.00000000	      0.00000000	      0.00000000	      0.00000000	     -0.00000000	      0.00000000
      1.21000000	     -0.68176651	      8.58088552	    -89.27314609	      0.21503154	      0.95189904	      0.56265008	     -2.41572008	      5.32365482	     -0.56171028	      6.13800675	      0.10712843	      8.11334659	      0.00000000	      0.00000000	     34.21187853	     -1.84926103	     -6.68208945	     14.66073685	      0.25587813	      1.24888666	      0.00000000	      0.00000000	      3.82501635	     -0.94393198	      4.41092650	      0.00000000	      0.00000000	      0.00000000	      0.00000000	      0.00000000	      0.00000000	      0.00000000	      0.00000000	      0.00000000	      0.00000000	      0.00000000	      0.00000000	      0.00000000	      0.00000000
